<svg width="92" height="91" viewBox="0 0 92 91" fill="none" xmlns="http://www.w3.org/2000/svg">
<path d="M70.3791 0.354092C76.8312 3.29397 83.555 5.60032 90.4561 7.24081C92.2688 7.64583 92.4471 10.7521 90.4506 11.0221C84.2855 11.8955 79.4097 15.466 75.0671 19.6822C74.3632 20.3861 73.0643 19.4673 73.649 18.6019C75.486 15.8972 77.8371 13.5796 80.5677 11.7814C75.2471 11.8664 70.4178 12.4568 65.718 15.8372C63.0845 17.795 60.9164 20.3114 59.3699 23.2049C57.8234 26.0985 56.9371 29.2972 56.7747 32.5706C56.4786 38.1023 59.2621 42.7159 59.7814 48.0778C59.9297 50.1966 59.639 52.3244 58.9274 54.3282C58.2158 56.3319 57.0987 58.1684 55.646 59.7227C48.3385 67.9986 36.8971 67.5373 26.8324 67.5941C20.1765 67.6248 14.0815 68.6668 9.09148 73.4182C6.93106 75.5325 5.22419 78.0647 4.0756 80.8594C2.927 83.6542 2.3609 86.6525 2.41207 89.6703C2.4177 90.6332 1.04726 90.586 0.971322 89.6373C0.483076 84.6792 1.61744 79.6919 4.20401 75.4247C6.79057 71.1575 10.6897 67.8409 15.3154 65.9732C27.4602 61.2255 45.5332 68.7266 54.1054 55.775C58.3529 49.3379 54.046 43.4404 53.2193 36.7717C52.5557 31.2223 53.6556 25.5997 56.3632 20.7004C60.2389 13.7226 68.5617 8.03869 76.8841 7.43624C73.985 6.41781 71.1432 5.24417 68.3709 3.92038C65.9056 2.79239 67.991 -0.710748 70.3791 0.354092Z" fill="#FFFFFF"/>
</svg>
