<svg width="50" height="50" viewBox="0 0 50 50" fill="none" xmlns="http://www.w3.org/2000/svg">
<rect width="50" height="50" rx="5" fill="#9EA7EF"/>
<path d="M18.73 37C17.99 37 17.31 36.82 16.69 36.46C16.07 36.1 15.58 35.61 15.22 34.99C14.86 34.37 14.68 33.69 14.68 32.95V19.45C14.68 18.71 14.86 18.03 15.22 17.41C15.58 16.79 16.07 16.3 16.69 15.94C17.31 15.58 17.99 15.4 18.73 15.4H32.23C32.97 15.4 33.64 15.58 34.24 15.94C34.86 16.3 35.35 16.79 35.71 17.41C36.09 18.03 36.28 18.71 36.28 19.45V20.92H32.65V19.57C32.65 19.41 32.59 19.28 32.47 19.18C32.37 19.08 32.25 19.03 32.11 19.03H18.82C18.68 19.03 18.55 19.08 18.43 19.18C18.33 19.28 18.28 19.41 18.28 19.57V32.83C18.28 32.99 18.33 33.12 18.43 33.22C18.55 33.32 18.68 33.37 18.82 33.37H32.11C32.25 33.37 32.37 33.32 32.47 33.22C32.59 33.12 32.65 32.99 32.65 32.83V28.6H27.67V24.97H36.28V32.95C36.28 33.69 36.09 34.37 35.71 34.99C35.35 35.61 34.86 36.1 34.24 36.46C33.64 36.82 32.97 37 32.23 37H18.73Z" fill="white"/>
</svg>
