<svg width="60" height="60" viewBox="0 0 60 60" fill="none" xmlns="http://www.w3.org/2000/svg">
<g clip-path="url(#clip0_1_2248)">
<path d="M9.92293 41.8503C11.5556 39.3563 10.8573 36.011 8.36333 34.3784C5.86934 32.7457 2.52405 33.444 0.891415 35.938C-0.741224 38.432 -0.0429657 41.7773 2.45102 43.4099C4.945 45.0425 8.29029 44.3443 9.92293 41.8503Z" fill="#DE946D"/>
<path d="M55.7217 14.5519L44.7898 21.9403L48.3087 25.8802C48.3649 25.9431 48.4182 26.0077 48.47 26.073L58.7931 19.0962C60.0479 18.2481 60.3776 16.5432 59.5296 15.2884C58.6816 14.0336 56.9768 13.7037 55.7217 14.5519ZM53.6487 38.5322C53.6487 35.1157 51.6871 32.1591 48.8298 30.7219C48.605 31.1198 48.3164 31.4782 47.9755 31.7825C46.2537 33.3205 43.6112 33.1712 42.0731 31.4494L41.2931 30.5761C38.2713 31.9518 36.1693 34.9955 36.1693 38.5322C36.1693 38.8389 36.1855 39.1418 36.2163 39.4403H39.4003C41.4248 39.4403 43.0661 41.0815 43.0661 43.106C43.0661 44.535 42.248 45.772 41.055 46.3767C42.2539 46.9671 43.5727 47.2733 44.9091 47.2718C49.7358 47.2718 53.6487 43.3589 53.6487 38.5322Z" fill="#DE946D"/>
<path d="M26.5976 45.4108C26.8603 45.504 27.1369 45.5517 27.4157 45.5517H39.4002C40.7509 45.5517 41.8459 44.4567 41.8459 43.1059C41.8459 41.7551 40.7509 40.6601 39.4002 40.6601H27.8368L22.5979 38.8004L28.1493 39.5819L35.1873 35.0501C36.0758 32.5767 37.8825 30.5375 40.1947 29.3461L37.7997 26.6645L35.02 28.5431L33.0687 30.9294L34.9997 21.4105L43.0242 30.4816C44.0277 31.616 45.7609 31.722 46.8952 30.7186C48.0296 29.7151 48.1357 27.9819 47.1322 26.8475L35.4606 13.6535C35.1227 13.2715 34.685 12.9913 34.1967 12.8444C33.7083 12.6974 33.1887 12.6896 32.6961 12.8217C32.2035 12.9538 31.7576 13.2207 31.4083 13.5923C31.059 13.9639 30.8203 14.4255 30.7189 14.9253L28.8512 24.1322L13.2645 33.7049C11.8164 34.5942 11.3633 36.4891 12.2528 37.9372L14.7477 41.9997C16.1549 44.2909 19.1251 45.033 21.4399 43.6985L21.5753 43.6282L26.5976 45.4108Z" fill="#DE946D"/>
</g>
<defs>
<clipPath id="clip0_1_2248">
<rect width="60" height="60" fill="white"/>
</clipPath>
</defs>
</svg>
