<svg width="50" height="50" viewBox="0 0 50 50" fill="none" xmlns="http://www.w3.org/2000/svg">
<g clip-path="url(#clip0_1_1044)">
<path d="M48.2917 22.8417C47.7218 24.529 46.8832 26.1133 45.8083 27.5333C45.8061 27.5333 45.804 27.5342 45.8024 27.5358C45.8009 27.5373 45.8 27.5395 45.8 27.5417C42.1 30.525 34.075 30.5667 28.6 28.7083C28.496 28.6733 28.3862 28.6591 28.2767 28.6665C28.1673 28.674 28.0604 28.7029 27.9621 28.7516C27.8638 28.8004 27.7761 28.868 27.704 28.9507C27.6318 29.0333 27.5767 29.1294 27.5417 29.2333C27.5066 29.3373 27.4924 29.4471 27.4999 29.5566C27.5073 29.666 27.5362 29.773 27.585 29.8712C27.6337 29.9695 27.7014 30.0572 27.784 30.1294C27.8667 30.2015 27.9627 30.2566 28.0667 30.2917C30.8154 31.1965 33.6895 31.6634 36.5833 31.675C38.539 31.69 40.4876 31.4377 42.375 30.925C40.2855 32.4626 37.866 33.4911 35.309 33.9288C32.752 34.3666 30.1281 34.2013 27.6462 33.4463C25.1643 32.6913 22.8929 31.3674 21.0129 29.5799C19.1328 27.7924 17.6959 25.5906 16.8167 23.15C18.5082 24.999 20.4725 26.5784 22.6417 27.8333C22.8315 27.9415 23.0563 27.9708 23.2675 27.9149C23.4787 27.859 23.6596 27.7223 23.771 27.5344C23.8825 27.3464 23.9157 27.1222 23.8634 26.91C23.8112 26.6979 23.6777 26.5147 23.4917 26.4C18.8667 23.625 15.9333 20.2333 15.8333 17.5C15.83 16.4392 15.9333 15.3817 16.1417 14.3417C18.1833 18.65 23.4167 22.55 29.8167 24.5167C32.5445 25.3694 35.3837 25.8131 38.2417 25.8333C41.65 25.8333 45.6942 25.0683 48.2917 22.8417ZM41.5917 3.53333C38.8886 1.76744 35.7288 0.829061 32.5 0.833327C31.85 0.833327 30.5583 0.949994 30.5583 0.949994C30.1203 1.07977 29.7176 1.30788 29.3811 1.61695C29.0446 1.92601 28.7831 2.30784 28.6167 2.73333C28.65 2.81666 27.6833 6.81666 34.6583 8.97499C34.7417 8.99166 42.1 10.9167 43.1667 7.27499C43.5925 5.88416 42.6208 4.56249 41.5917 3.53333ZM38.2917 5.26666C38.2569 5.37078 38.2019 5.467 38.1298 5.5498C38.0577 5.63259 37.9699 5.70032 37.8716 5.74911C37.7733 5.79789 37.6662 5.82677 37.5567 5.83407C37.4472 5.84137 37.3373 5.82696 37.2333 5.79166L34.7333 4.95833C34.6294 4.92331 34.5333 4.86816 34.4507 4.79602C34.368 4.72388 34.3004 4.63617 34.2516 4.53789C34.2029 4.43962 34.174 4.3327 34.1665 4.22325C34.1591 4.1138 34.1733 4.00396 34.2083 3.89999C34.2433 3.79603 34.2985 3.69998 34.3706 3.61734C34.4428 3.53469 34.5305 3.46706 34.6288 3.41831C34.727 3.36956 34.834 3.34064 34.9434 3.33321C35.0529 3.32578 35.1627 3.33998 35.2667 3.37499L37.7667 4.20833C38.2008 4.35833 38.435 4.82999 38.2917 5.26666Z" fill="#5DA8DA"/>
<path d="M49.1667 17.5C49.1667 17.9166 49.15 18.3416 49.1167 18.75V18.7666C48.7733 19.9404 48.0528 20.9684 47.0667 21.6916C43.5833 24.45 36.85 24.9416 30.3167 22.9166C24.3083 21.075 19.45 17.4916 17.625 13.55C17.3376 12.9063 17.1035 12.2402 16.925 11.5583V11.55C17.6122 9.75934 18.6047 8.10144 19.8583 6.64996C20.4099 8.25375 21.3123 9.71425 22.5 10.925C25.198 13.6454 28.5451 15.6331 32.225 16.7C33.6382 17.1472 35.0883 17.4679 36.5583 17.6583C36.7708 17.6744 36.9814 17.6085 37.1469 17.4742C37.3123 17.3398 37.4199 17.1471 37.4477 16.9358C37.4754 16.7245 37.4211 16.5106 37.296 16.3381C37.1709 16.1656 36.9845 16.0476 36.775 16.0083C35.4015 15.8262 34.0464 15.5251 32.725 15.1083C29.3196 14.1295 26.2195 12.2998 23.7167 9.79162C22.4556 8.55054 21.5888 6.96486 21.225 5.23329C22.9555 3.63579 25.0066 2.42555 27.2417 1.68329C27.1508 1.86579 27.075 2.05496 27.0167 2.24996C26 6.10829 30.2917 9.36662 34.1583 10.5666C35.4917 10.9983 36.8825 11.2208 38.2833 11.225C40.9667 11.225 44.0417 10.2416 44.7667 7.74996C44.8986 7.3128 44.9522 6.85577 44.925 6.39996C46.5377 8.19645 47.738 10.3239 48.4417 12.6333V12.6416C47.5833 14.0416 45.9417 15.1 43.7 15.7C43.2633 15.815 42.8208 15.9066 42.375 15.975C42.157 16.0097 41.9613 16.1288 41.8304 16.3065C41.6994 16.4843 41.6436 16.7064 41.675 16.925C41.6913 17.0334 41.7288 17.1375 41.7854 17.2314C41.842 17.3252 41.9165 17.407 42.0048 17.4721C42.093 17.5371 42.1932 17.5841 42.2997 17.6103C42.4061 17.6365 42.5166 17.6415 42.625 17.625C43.1301 17.5486 43.6308 17.4457 44.125 17.3166C45.9315 16.8958 47.5921 15.9979 48.9333 14.7166C49.0875 15.6366 49.1658 16.5666 49.1667 17.5ZM0 43.3333C0 44.2173 0.35119 45.0652 0.976311 45.6903C1.60143 46.3154 2.44928 46.6666 3.33333 46.6666H15V40H3.33333C2.44928 40 1.60143 40.3511 0.976311 40.9763C0.35119 41.6014 0 42.4492 0 43.3333ZM2.5 20H7.5V15H2.5C1.83696 15 1.20107 15.2633 0.732233 15.7322C0.263392 16.201 0 16.8369 0 17.5C0 18.163 0.263392 18.7989 0.732233 19.2677C1.20107 19.7366 1.83696 20 2.5 20ZM10.8333 21.6666C11.2754 21.6666 11.6993 21.491 12.0118 21.1785C12.3244 20.8659 12.5 20.442 12.5 20V18.3333H14.1917C14.1579 17.7782 14.1579 17.2217 14.1917 16.6666H12.5V15C12.5 14.5579 12.3244 14.134 12.0118 13.8214C11.6993 13.5089 11.2754 13.3333 10.8333 13.3333C10.3913 13.3333 9.96738 13.5089 9.65482 13.8214C9.34226 14.134 9.16667 14.5579 9.16667 15V20C9.16667 20.442 9.34226 20.8659 9.65482 21.1785C9.96738 21.491 10.3913 21.6666 10.8333 21.6666ZM44.95 30.9333C44.3951 31.4624 43.8018 31.9499 43.175 32.3916H43.3667C44.6892 32.4207 45.9482 32.9647 46.8757 33.9078C47.8033 34.8509 48.3263 36.1188 48.3333 37.4416C48.3318 38.7827 47.7984 40.0684 46.8501 41.0167C45.9018 41.965 44.6161 42.4984 43.275 42.5H20.8333V39.5833C20.8333 39.0308 20.6138 38.5009 20.2231 38.1101C19.8324 37.7194 19.3025 37.5 18.75 37.5C18.1975 37.5 17.6676 37.7194 17.2769 38.1101C16.8862 38.5009 16.6667 39.0308 16.6667 39.5833V47.0833C16.6667 47.6358 16.8862 48.1657 17.2769 48.5564C17.6676 48.9471 18.1975 49.1666 18.75 49.1666C19.3025 49.1666 19.8324 48.9471 20.2231 48.5564C20.6138 48.1657 20.8333 47.6358 20.8333 47.0833V44.1666H43.275C44.912 44.167 46.4928 43.57 47.7209 42.4877C48.9491 41.4055 49.7401 39.9123 49.9457 38.2883C50.1512 36.6643 49.7572 35.0211 48.8374 33.667C47.9176 32.3128 46.5354 31.3408 44.95 30.9333ZM4.16667 27.9166C4.17192 28.9096 4.5687 29.8603 5.27082 30.5625C5.97295 31.2646 6.92373 31.6614 7.91667 31.6666H20.8833C20.2521 31.1547 19.6589 30.5977 19.1083 30H7.91667C7.36474 29.998 6.83598 29.7779 6.44571 29.3876C6.05544 28.9973 5.83531 28.4685 5.83333 27.9166C5.83333 27.3641 6.05283 26.8342 6.44353 26.4435C6.83423 26.0528 7.36413 25.8333 7.91667 25.8333H16.1833C15.8996 25.2935 15.6491 24.7369 15.4333 24.1666H7.91667C6.92258 24.1682 5.96965 24.5637 5.26672 25.2667C4.56379 25.9696 4.16821 26.9225 4.16667 27.9166Z" fill="#5DA8DA"/>
</g>
<defs>
<clipPath id="clip0_1_1044">
<rect width="50" height="50" fill="white"/>
</clipPath>
</defs>
</svg>
