<svg width="60" height="60" viewBox="0 0 60 60" fill="none" xmlns="http://www.w3.org/2000/svg">
<g clip-path="url(#clip0_1_1037)">
<path d="M11.2095 25.2549C11.2299 25.5196 11.3022 25.7778 11.4223 26.0146C11.5424 26.2514 11.708 26.4623 11.9096 26.6351C12.1112 26.8079 12.3449 26.9393 12.5973 27.0218C12.8497 27.1043 13.1158 27.1362 13.3806 27.1158C15.5972 26.949 17.5107 26.2075 19.126 25.2261H11.2085C11.2093 25.2357 11.2085 25.2453 11.2095 25.2549ZM25.7355 19.3713C25.8406 19.2686 25.945 19.1681 26.0484 19.0705C24.9446 18.2126 24.149 17.0197 23.781 15.6711C22.3376 16.9596 21.0589 18.4091 19.7108 19.6657H25.4344C25.5355 19.5656 25.6359 19.467 25.7355 19.3713ZM46.1311 25.2261C47.6185 26.3902 49.4878 27.2748 51.7384 27.3721C52.0036 27.3845 52.2686 27.3445 52.5183 27.2544C52.768 27.1644 52.9976 27.026 53.1938 26.8472C53.39 26.6685 53.5491 26.4528 53.662 26.2125C53.7749 25.9723 53.8393 25.7121 53.8516 25.447C53.8552 25.3656 53.8537 25.284 53.8471 25.2028C53.7346 25.2167 53.6209 25.2261 53.5049 25.2261H46.1311ZM33.0407 19.6657H46.4197C45.7853 18.8092 45.1909 17.8801 44.6225 16.9864C44.0295 16.0697 43.4679 15.1949 42.7719 14.4236C42.4203 14.0394 42.0291 13.6724 41.5231 13.3643C41.0981 13.1034 40.625 12.9308 40.132 12.8568C39.9979 12.8283 39.8613 12.8138 39.7243 12.8136H36.3365C36.4083 13.1998 36.4447 13.5917 36.4452 13.9845C36.4449 16.4397 35.0652 18.5776 33.0407 19.6657ZM30.0513 42.4728H29.9479C29.4991 42.8863 28.9579 43.1865 28.3695 43.3485L26.708 43.8057L25.3563 56.4037C25.1718 58.1204 26.4143 59.6601 28.1297 59.8441C29.8456 60.0283 31.3863 58.7868 31.5703 57.0705L33.0023 43.7259L31.6304 43.3483C31.0417 43.1866 30.5003 42.8864 30.0513 42.4728ZM40.4251 56.9034V45.77L36.7937 44.7702L38.1136 57.0707C38.2978 58.7871 39.8383 60.0283 41.5542 59.8443C41.6232 59.837 41.6904 59.8238 41.7581 59.812C40.9435 59.1045 40.4251 58.064 40.4251 56.9034ZM37.5944 25.2261V36.9953L42.3869 38.3149L41.6775 31.7046V25.2261H37.5944ZM35.8492 11.2827C38.5094 10.8071 40.5288 8.48384 40.5288 5.68673C40.5288 2.54588 37.9831 0 34.842 0C31.7015 0 29.1553 2.54588 29.1553 5.68673C29.1553 6.34462 29.2683 6.97572 29.4738 7.56334C29.649 7.54824 29.8247 7.5404 30.0005 7.53984C32.5893 7.53984 34.8254 9.07525 35.8492 11.2827Z" fill="#C783E8"/>
<path d="M53.5051 20.424H30.2335C30.1559 20.4267 30.0786 20.4298 30.0002 20.4298C29.9219 20.4298 29.8445 20.4265 29.767 20.424H6.4946C5.95835 20.424 5.44406 20.637 5.06487 21.0162C4.68568 21.3954 4.47266 21.9096 4.47266 22.4459C4.47266 22.9822 4.68568 23.4964 5.06487 23.8756C5.44406 24.2548 5.95835 24.4678 6.4946 24.4678H23.1645V37.5728L14.8976 39.849C14.2441 40.0291 13.6677 40.4186 13.2569 40.9578C12.8461 41.497 12.6235 42.1561 12.6234 42.8339V56.9037C12.6234 58.6137 14.0094 60.0003 15.7197 60.0003C17.4298 60.0003 18.8163 58.6137 18.8163 56.9037L18.8156 45.1928L28.1678 42.6178C28.7324 42.4625 29.2409 42.1493 29.6338 41.715H30.3657C30.7586 42.1494 31.2672 42.4628 31.8319 42.6184V42.6178L41.1836 45.1928V56.9037C41.1836 58.614 42.5699 60.0003 44.2802 60.0003C45.9903 60.0003 47.3766 58.614 47.3766 56.9037L47.3761 42.8342C47.3761 42.1563 47.1536 41.4972 46.7428 40.958C46.3321 40.4188 45.7557 40.0293 45.1022 39.8493L36.8362 37.5731V24.4678H53.5054C54.0416 24.4678 54.556 24.2548 54.9352 23.8756C55.3144 23.4965 55.5275 22.9822 55.5276 22.4459C55.5274 21.9096 55.3142 21.3954 54.935 21.0162C54.5557 20.637 54.0414 20.424 53.5051 20.424Z" fill="#C783E8"/>
<path d="M30.0002 19.6715C33.1409 19.6715 35.687 17.1255 35.687 13.9848C35.687 10.8441 33.1409 8.2981 30.0002 8.2981C26.8595 8.2981 24.3135 10.8441 24.3135 13.9848C24.3135 17.1255 26.8595 19.6715 30.0002 19.6715Z" fill="#C783E8"/>
</g>
<defs>
<clipPath id="clip0_1_1037">
<rect width="60" height="60" fill="white"/>
</clipPath>
</defs>
</svg>
