<svg width="130" height="125" viewBox="0 0 130 125" fill="none" xmlns="http://www.w3.org/2000/svg">
<path d="M41.8865 105.288L42.1386 119.683L40.2266 118.628L40.0376 106.683L29.7869 112.864L27.8749 111.808L40.2629 104.392L41.8865 105.288Z" fill="#000000"/>
<path d="M33.6278 99.4126L25.1024 108.527L23.7293 107.254L32.2548 98.1401L33.6278 99.4126Z" fill="#000000"/>
<path d="M29.2282 95.285L18.995 102.429L12.4055 93.0771L13.9404 92.0056L19.4417 99.8127L22.2559 97.8482L17.8329 91.5713L19.3679 90.4998L23.7908 96.7767L26.605 94.8122L21.1037 87.005L22.6387 85.9335L29.2282 95.285Z" fill="#000000"/>
<path d="M20.6684 80.4983L9.8824 88.2289L9.34108 86.3104L17.1893 80.679L7.54295 79.9379L7.00634 78.0362L14.8499 72.388L5.20821 71.6637L4.66219 69.7286L17.9147 70.7394L18.3336 72.2241L9.94559 78.2404L20.2541 79.0303L20.6684 80.4983Z" fill="#000000"/>
<path d="M17.9478 59.4441L5.8019 56.5757L6.32038 54.4006L13.0424 51.0191L8.55913 45.0091L9.08164 42.8172L21.2275 45.6856L20.7894 47.5234L11.0896 45.2327L15.8933 51.6924L8.68203 55.3324L18.3819 57.6231L17.9478 59.4441Z" fill="#000000"/>
<path d="M23.3341 42.8861C23.1181 43.2416 22.836 43.5169 22.4877 43.7119C22.1355 43.8911 21.7619 43.9832 21.3668 43.9882C20.9677 43.9773 20.59 43.8647 20.2336 43.6502L13.4017 39.5392C13.0453 39.3247 12.7745 39.0471 12.5893 38.7064C12.4003 38.3499 12.3086 37.9778 12.3142 37.5901C12.316 37.1866 12.4248 36.807 12.6408 36.4515L16.7801 29.6368C16.99 29.2911 17.2741 29.0237 17.6323 28.8347C17.9806 28.6397 18.3543 28.5476 18.7533 28.5584C19.1484 28.5534 19.5242 28.6582 19.8806 28.8727L26.7124 32.9836C27.0689 33.1981 27.3416 33.4836 27.5307 33.8401C27.7158 34.1808 27.8075 34.5529 27.8058 34.9565C27.7941 35.354 27.6833 35.7257 27.4734 36.0713L23.3341 42.8861ZM21.7571 41.8764L25.8424 35.1506C25.9024 35.0518 25.9187 34.947 25.8914 34.8362C25.8542 34.7194 25.7861 34.6312 25.6871 34.5716L18.9443 30.5143C18.8453 30.4547 18.7402 30.4386 18.6289 30.466C18.5077 30.4875 18.4171 30.5476 18.3571 30.6464L14.2718 37.3722C14.2118 37.471 14.1974 37.5837 14.2286 37.7104C14.256 37.8212 14.3191 37.9064 14.4181 37.966L21.1608 42.0234C21.2599 42.083 21.37 42.102 21.4912 42.0805C21.6085 42.0432 21.6971 41.9752 21.7571 41.8764Z" fill="#000000"/>
<path d="M37.5601 26.3944L31.5306 25.5195L33.356 23.8944L38.9596 24.6843L39.1913 24.9421L37.5601 26.3944ZM29.9217 33.1944L21.5917 23.9247L29.2171 17.1361C29.5278 16.8595 29.8821 16.6833 30.2801 16.6075C30.678 16.5317 31.0662 16.5574 31.4446 16.6847C31.824 16.7956 32.1488 17.0015 32.4192 17.3023L34.7595 19.9066C35.0375 20.216 35.2147 20.5688 35.2911 20.965C35.3683 21.3449 35.347 21.7274 35.2271 22.1126C35.0995 22.4893 34.8803 22.8159 34.5696 23.0925L28.354 28.6492L31.3199 31.9497L29.9217 33.1944ZM27.4033 26.9428L33.2809 21.7103C33.3672 21.6334 33.4135 21.538 33.4199 21.4241C33.4262 21.3101 33.3908 21.2102 33.3135 21.1242L31.0428 18.5973C30.9655 18.5113 30.8697 18.4652 30.7552 18.4588C30.633 18.4438 30.5287 18.4748 30.4424 18.5516L24.5648 23.7842C24.4785 23.861 24.4317 23.9645 24.4244 24.0948C24.4181 24.2087 24.4535 24.3087 24.5308 24.3946L26.8015 26.9216C26.8788 27.0075 26.9746 27.0537 27.0891 27.0601C27.2122 27.0587 27.317 27.0197 27.4033 26.9428Z" fill="#000000"/>
<path d="M40.8052 24.3723L35.4783 13.0863L45.8413 8.2406L46.6403 9.9335L37.9888 13.9789L39.4537 17.0826L46.4095 13.8301L47.2085 15.523L40.2527 18.7755L41.7176 21.8792L50.3692 17.8337L51.1683 19.5266L40.8052 24.3723Z" fill="#000000"/>
<path d="M86.6902 23.262L85.9557 8.88254L87.9018 9.87374L88.4911 21.8062L98.5282 15.286L100.474 16.2772L88.3429 24.1038L86.6902 23.262Z" fill="#000000"/>
<path d="M95.1421 28.8597L103.357 19.4651L104.772 20.6908L96.557 30.0854L95.1421 28.8597Z" fill="#000000"/>
<path d="M99.678 32.8377L109.667 25.356L116.566 34.4814L115.068 35.6036L109.308 27.9853L106.561 30.0428L111.192 36.1679L109.694 37.2901L105.063 31.1651L102.316 33.2226L108.076 40.8409L106.577 41.9631L99.678 32.8377Z" fill="#000000"/>
<path d="M108.731 47.3295L119.252 39.244L119.857 41.1431L112.202 47.0329L121.868 47.4516L122.469 49.3342L114.819 55.2405L124.48 55.6427L125.091 57.5583L111.811 56.9904L111.342 55.5206L119.524 49.2282L109.194 48.7828L108.731 47.3295Z" fill="#000000"/>
<path d="M112.16 68.2813L124.395 70.7432L123.95 72.9345L117.346 76.5385L122.028 82.3959L121.58 84.6042L109.345 82.1423L109.721 80.2908L119.492 82.2569L114.474 75.9607L121.559 72.082L111.788 70.1159L112.16 68.2813Z" fill="#000000"/>
<path d="M107.335 85.011C107.539 84.6484 107.811 84.3639 108.153 84.1573C108.499 83.9664 108.869 83.8619 109.264 83.8437C109.663 83.8412 110.044 83.9412 110.408 84.1436L117.373 88.0241C117.737 88.2266 118.016 88.495 118.213 88.8293C118.414 89.1793 118.518 89.5482 118.525 89.9359C118.537 90.3393 118.441 90.7223 118.237 91.0849L114.329 98.0346C114.131 98.3872 113.856 98.6639 113.504 98.8648C113.162 99.0714 112.792 99.1759 112.393 99.1784C111.998 99.1966 111.619 99.1045 111.256 98.902L104.291 95.0215C103.927 94.8191 103.645 94.5428 103.444 94.1928C103.248 93.8585 103.144 93.4896 103.132 93.0862C103.13 92.6885 103.228 92.3133 103.427 91.9608L107.335 85.011ZM108.945 85.9674L105.087 92.8266C105.031 92.9273 105.018 93.0326 105.049 93.1424C105.09 93.2579 105.161 93.3438 105.262 93.4001L112.137 97.2299C112.237 97.2862 112.343 97.2987 112.453 97.2676C112.574 97.2421 112.662 97.179 112.719 97.0782L116.576 90.2191C116.633 90.1184 116.644 90.0052 116.608 89.8797C116.577 89.7698 116.511 89.6867 116.41 89.6305L109.536 85.8006C109.435 85.7444 109.324 85.729 109.204 85.7545C109.088 85.7957 109.001 85.8667 108.945 85.9674Z" fill="#000000"/>
<path d="M93.6706 101.969L99.726 102.642L97.956 104.327L92.3291 103.725L92.0889 103.475L93.6706 101.969ZM101.077 94.9172L109.713 103.903L102.319 110.943C102.018 111.23 101.669 111.417 101.274 111.507C100.879 111.596 100.49 111.583 100.108 111.468C99.7249 111.37 99.3933 111.175 99.1131 110.884L96.6869 108.359C96.3986 108.059 96.2097 107.713 96.1201 107.319C96.0302 106.942 96.0387 106.559 96.1456 106.17C96.2606 105.79 96.4687 105.456 96.77 105.169L102.796 99.4073L99.7213 96.208L101.077 94.9172ZM103.803 101.081L98.1043 106.507C98.0206 106.587 97.9775 106.684 97.9749 106.798C97.9724 106.912 98.0112 107.011 98.0912 107.094L100.445 109.543C100.525 109.627 100.623 109.67 100.737 109.672C100.86 109.683 100.963 109.649 101.047 109.569L106.746 104.143C106.83 104.063 106.873 103.958 106.876 103.828C106.879 103.713 106.84 103.615 106.76 103.531L104.406 101.082C104.326 100.999 104.228 100.956 104.114 100.953C103.991 100.959 103.887 101.001 103.803 101.081Z" fill="#000000"/>
<path d="M90.4955 104.097L96.1983 115.198L86.0028 120.387L85.1474 118.721L93.6591 114.389L92.0908 111.337L85.2474 114.82L84.392 113.155L91.2354 109.672L89.6671 106.619L81.1554 110.951L80.3 109.286L90.4955 104.097Z" fill="#000000"/>
<circle cx="65" cy="62" r="30" fill="#000"/>
<g clip-path="url(#clip0_252_2436)">
<path d="M71.25 55.75L58.75 68.25" stroke="white" stroke-width="2.75" stroke-linecap="round" stroke-linejoin="round"/>
<path d="M60 55.75H71.25V67" stroke="white" stroke-width="2.75" stroke-linecap="round" stroke-linejoin="round"/>
</g>
<defs>
<clipPath id="clip0_252_2436">
<rect width="30" height="30" fill="white" transform="translate(50 47)"/>
</clipPath>
</defs>
</svg>
