<svg width="130" height="124" viewBox="0 0 130 124" fill="none" xmlns="http://www.w3.org/2000/svg">
<path d="M41.9195 104.531L42.1512 118.892L40.2364 117.842L40.0644 105.925L29.781 112.106L27.8662 111.056L40.2935 103.639L41.9195 104.531Z" fill="white"/>
<path d="M33.6677 98.7287L25.1131 107.815L23.7359 106.547L32.2906 97.4607L33.6677 98.7287Z" fill="white"/>
<path d="M29.2567 94.6492L19.002 101.762L12.3842 92.4304L13.9224 91.3635L19.4473 99.1539L22.2673 97.1979L17.8253 90.9345L19.3635 89.8676L23.8055 96.131L26.6256 94.175L21.1007 86.3846L22.6389 85.3177L29.2567 94.6492Z" fill="white"/>
<path d="M20.6683 79.9507L9.88413 87.6591L9.33957 85.7416L17.1865 80.1262L7.53071 79.3722L6.99089 77.4713L14.8331 71.8392L5.18203 71.1019L4.63274 69.1677L17.8982 70.1964L18.3196 71.6804L9.93298 77.6796L20.2516 78.4834L20.6683 79.9507Z" fill="white"/>
<path d="M17.9553 59.0587L5.80533 56.2077L6.32698 54.0334L13.0577 50.6455L8.57939 44.6452L9.10508 42.454L21.2551 45.305L20.8143 47.1422L11.1112 44.8654L15.9096 51.3146L8.68894 54.9615L18.3921 57.2383L17.9553 59.0587Z" fill="white"/>
<path d="M23.3681 42.6141C23.1512 42.969 22.868 43.244 22.5185 43.439C22.1652 43.6181 21.7905 43.7105 21.3944 43.716C20.9944 43.7057 20.6159 43.5938 20.2588 43.3803L13.4154 39.2888C13.0583 39.0753 12.7872 38.7988 12.6021 38.4592C12.413 38.1038 12.3216 37.7328 12.3277 37.3461C12.33 36.9435 12.4397 36.5648 12.6566 36.2099L16.8154 29.407C17.0263 29.0619 17.3115 28.7949 17.6708 28.6058C18.0202 28.4109 18.3949 28.3185 18.7949 28.3288C19.1911 28.3233 19.5676 28.4273 19.9247 28.6408L26.7682 32.7324C27.1252 32.9459 27.3983 33.2303 27.5873 33.5856C27.7725 33.9252 27.8639 34.2962 27.8616 34.6988C27.8494 35.0953 27.7378 35.4662 27.5269 35.8112L23.3681 42.6141ZM21.7885 41.6091L25.893 34.895C25.9533 34.7964 25.9698 34.6918 25.9426 34.5813C25.9054 34.4649 25.8373 34.377 25.7381 34.3177L18.9839 30.2795C18.8847 30.2202 18.7793 30.2043 18.6677 30.2318C18.5462 30.2533 18.4552 30.3134 18.395 30.412L14.2905 37.1262C14.2302 37.2247 14.2156 37.3372 14.2468 37.4635C14.274 37.574 14.3372 37.6589 14.4364 37.7182L21.1906 41.7565C21.2898 41.8158 21.4001 41.8346 21.5217 41.813C21.6393 41.7757 21.7283 41.7077 21.7885 41.6091Z" fill="white"/>
<path d="M37.6268 26.2515L31.578 25.3773L33.4086 23.758L39.0301 24.5473L39.2627 24.8045L37.6268 26.2515ZM29.9668 33.0271L21.6071 23.784L29.2542 17.0199C29.5657 16.7443 29.9211 16.5687 30.3203 16.4933C30.7195 16.4179 31.1089 16.4437 31.4886 16.5706C31.8692 16.6814 32.1951 16.8867 32.4664 17.1867L34.815 19.7835C35.0941 20.092 35.272 20.4437 35.3487 20.8386C35.4263 21.2173 35.4051 21.5986 35.285 21.9826C35.1571 22.358 34.9373 22.6835 34.6257 22.9591L28.3925 28.4958L31.369 31.7868L29.9668 33.0271ZM27.4381 26.7946L33.3324 21.5808C33.419 21.5043 33.4654 21.4092 33.4718 21.2956C33.4781 21.182 33.4425 21.0824 33.365 20.9967L31.0861 18.477C31.0086 18.3913 30.9125 18.3452 30.7976 18.3388C30.675 18.3239 30.5704 18.3547 30.4839 18.4312L24.5896 23.645C24.503 23.7216 24.4561 23.8248 24.4489 23.9546C24.4426 24.0682 24.4782 24.1678 24.5557 24.2535L26.8345 26.7732C26.912 26.8589 27.0082 26.9049 27.1231 26.9113C27.2466 26.9101 27.3516 26.8712 27.4381 26.7946Z" fill="white"/>
<path d="M40.8467 24.3007L35.4917 13.028L45.8667 8.20781L46.6699 9.89872L38.0084 13.9228L39.481 17.0228L46.4448 13.7875L47.2481 15.4784L40.2843 18.7138L41.7569 21.8138L50.4184 17.7896L51.2217 19.4805L40.8467 24.3007Z" fill="white"/>
<path d="M86.6577 23.1986L85.9438 8.85083L87.8925 9.83697L88.4647 21.7431L98.5329 15.2216L100.482 16.2078L88.3126 24.036L86.6577 23.1986Z" fill="white"/>
<path d="M95.1011 28.7254L103.346 19.357L104.765 20.5783L96.5199 29.9466L95.1011 28.7254Z" fill="white"/>
<path d="M99.6471 32.6552L109.659 25.2043L116.586 34.3082L115.085 35.4259L109.301 27.8254L106.548 29.8744L111.198 35.9851L109.696 37.1028L105.046 30.9921L102.293 33.0411L108.076 40.6415L106.575 41.7591L99.6471 32.6552Z" fill="white"/>
<path d="M108.73 47.0577L119.25 38.9966L119.859 40.8946L112.204 46.7666L121.882 47.1993L122.486 49.0808L114.836 54.9693L124.509 55.3855L125.123 57.3001L111.828 56.7128L111.357 55.2439L119.538 48.9705L109.196 48.51L108.73 47.0577Z" fill="white"/>
<path d="M112.155 67.8486L124.393 70.2953L123.945 72.486L117.333 76.0958L122.011 81.9451L121.56 84.1528L109.322 81.7061L109.701 79.855L119.474 81.809L114.461 75.5216L121.553 71.6367L111.78 69.6827L112.155 67.8486Z" fill="white"/>
<path d="M107.304 84.4664C107.509 84.1044 107.782 83.8201 108.125 83.6135C108.472 83.4226 108.843 83.3178 109.239 83.2991C109.639 83.296 110.021 83.3952 110.385 83.5967L117.361 87.4582C117.725 87.6596 118.005 87.927 118.201 88.2602C118.402 88.6092 118.506 88.977 118.513 89.3638C118.524 89.7662 118.427 90.1484 118.222 90.5105L114.295 97.4495C114.096 97.8014 113.82 98.0779 113.467 98.2789C113.124 98.4854 112.753 98.5902 112.353 98.5933C111.957 98.612 111.578 98.5207 111.214 98.3192L104.238 94.4577C103.874 94.2563 103.591 93.9811 103.391 93.6322C103.194 93.2989 103.09 92.9311 103.079 92.5286C103.078 92.1318 103.177 91.7574 103.376 91.4054L107.304 84.4664ZM108.916 85.4183L105.04 92.2668C104.983 92.3673 104.97 92.4724 105.001 92.582C105.042 92.6971 105.113 92.7827 105.214 92.8387L112.099 96.6498C112.2 96.7057 112.306 96.7181 112.416 96.6869C112.537 96.6613 112.626 96.5982 112.683 96.4976L116.559 89.6491C116.616 89.5486 116.627 89.4357 116.591 89.3104C116.56 89.2009 116.494 89.1181 116.393 89.0621L109.508 85.251C109.407 85.1951 109.296 85.1799 109.176 85.2055C109.059 85.2468 108.973 85.3177 108.916 85.4183Z" fill="white"/>
<path d="M93.604 101.296L99.6788 101.967L97.9034 103.647L92.2584 103.046L92.0174 102.797L93.604 101.296ZM101.033 94.2678L109.698 103.226L102.281 110.242C101.979 110.528 101.63 110.715 101.233 110.804C100.837 110.892 100.447 110.88 100.063 110.765C99.6789 110.668 99.3463 110.473 99.0651 110.183L96.6308 107.666C96.3416 107.367 96.152 107.021 96.0621 106.629C95.9718 106.253 95.9803 105.872 96.0875 105.484C96.2027 105.104 96.4115 104.772 96.7137 104.486L102.758 98.7437L99.6732 95.5543L101.033 94.2678ZM103.769 100.412L98.0524 105.82C97.9685 105.899 97.9252 105.996 97.9227 106.11C97.9202 106.223 97.9591 106.322 98.0394 106.405L100.401 108.847C100.482 108.93 100.579 108.973 100.694 108.975C100.817 108.986 100.921 108.952 101.005 108.872L106.722 103.464C106.805 103.385 106.849 103.28 106.852 103.15C106.854 103.037 106.815 102.938 106.735 102.855L104.373 100.413C104.293 100.33 104.195 100.287 104.08 100.285C103.957 100.29 103.853 100.333 103.769 100.412Z" fill="white"/>
<path d="M90.4524 103.349L96.1843 114.435L85.9753 119.597L85.1156 117.934L93.6385 113.625L92.0622 110.576L85.2098 114.041L84.3501 112.378L91.2024 108.913L89.6261 105.864L81.1032 110.174L80.2434 108.512L90.4524 103.349Z" fill="white"/>
<ellipse opacity="0.21" cx="65" cy="61.6026" rx="30" ry="29.8077" fill="white"/>
<g clip-path="url(#clip0_119_7221)">
<path d="M71.25 55.3926L58.75 67.8124" stroke="white" stroke-width="2.75" stroke-linecap="round" stroke-linejoin="round"/>
<path d="M60 55.3926H71.25V66.5705" stroke="white" stroke-width="2.75" stroke-linecap="round" stroke-linejoin="round"/>
</g>
<defs>
<clipPath id="clip0_119_7221">
<rect width="30" height="29.8077" fill="white" transform="translate(50 46.6987)"/>
</clipPath>
</defs>
</svg>
