<svg width="22" height="22" viewBox="0 0 22 22" fill="none" xmlns="http://www.w3.org/2000/svg">
<path d="M9.99985 13.7501C9.90134 13.7503 9.80376 13.731 9.71278 13.6932C9.6218 13.6555 9.53923 13.6 9.46985 13.5301L7.46985 11.5301C7.33737 11.3879 7.26524 11.1999 7.26867 11.0056C7.2721 10.8113 7.35081 10.6259 7.48823 10.4885C7.62564 10.3511 7.81102 10.2723 8.00532 10.2689C8.19963 10.2655 8.38767 10.3376 8.52985 10.4701L9.99985 11.9391L13.4698 8.47009C13.612 8.33761 13.8001 8.26549 13.9944 8.26892C14.1887 8.27234 14.3741 8.35106 14.5115 8.48847C14.6489 8.62588 14.7276 8.81127 14.731 9.00557C14.7345 9.19987 14.6623 9.38792 14.5298 9.53009L10.5298 13.5301C10.4605 13.6 10.3779 13.6555 10.2869 13.6932C10.1959 13.731 10.0984 13.7503 9.99985 13.7501Z" fill="#9EA1BC"/>
<path d="M10.9999 21.749C10.6151 21.7496 10.234 21.6742 9.87848 21.5271C9.52291 21.3801 9.19989 21.1642 8.92792 20.892L7.83692 19.8C7.70446 19.6668 7.54691 19.5612 7.37338 19.4893C7.19984 19.4174 7.01377 19.3806 6.82592 19.381H5.54792C4.77108 19.3803 4.02628 19.0713 3.47698 18.522C2.92767 17.9727 2.61872 17.2279 2.61792 16.451V15.174C2.6185 14.9863 2.58186 14.8002 2.51011 14.6267C2.43837 14.4532 2.33294 14.2956 2.19992 14.163L1.10792 13.072C0.55931 12.522 0.251221 11.7769 0.251221 11C0.251221 10.2232 0.55931 9.47806 1.10792 8.92804L2.19992 7.83704C2.33312 7.70459 2.43873 7.54703 2.51065 7.3735C2.58257 7.19996 2.61937 7.01389 2.61892 6.82604V5.54804C2.61972 4.7712 2.92867 4.02641 3.47798 3.4771C4.02728 2.92779 4.77208 2.61884 5.54892 2.61804H6.82592C7.0137 2.61862 7.19973 2.58198 7.37326 2.51024C7.54679 2.43849 7.70438 2.33306 7.83692 2.20004L8.92792 1.10804C9.47794 0.559432 10.2231 0.251343 10.9999 0.251343C11.7768 0.251343 12.5219 0.559432 13.0719 1.10804L14.1629 2.20004C14.2954 2.33324 14.4529 2.43885 14.6265 2.51077C14.8 2.58269 14.9861 2.61949 15.1739 2.61904H16.4519C17.2288 2.61984 17.9736 2.92879 18.5229 3.4781C19.0722 4.02741 19.3811 4.7722 19.3819 5.54904V6.82604C19.3813 7.01382 19.418 7.19985 19.4897 7.37338C19.5615 7.54691 19.6669 7.7045 19.7999 7.83704L20.8909 8.92804C21.4395 9.47806 21.7476 10.2232 21.7476 11C21.7476 11.7769 21.4395 12.522 20.8909 13.072L19.7999 14.163C19.6667 14.2955 19.5611 14.4531 19.4892 14.6266C19.4173 14.8001 19.3805 14.9862 19.3809 15.174V16.452C19.3801 17.2289 19.0712 17.9737 18.5219 18.523C17.9726 19.0723 17.2278 19.3813 16.4509 19.382H15.1739C14.9861 19.3816 14.8 19.4184 14.6265 19.4903C14.4529 19.5622 14.2954 19.6678 14.1629 19.801L13.0719 20.892C12.8 21.1642 12.4769 21.3801 12.1214 21.5271C11.7658 21.6742 11.3847 21.7496 10.9999 21.749ZM5.54792 4.11804C5.16874 4.11831 4.80517 4.26905 4.53705 4.53717C4.26893 4.80529 4.11819 5.16886 4.11792 5.54804V6.82604C4.11931 7.21142 4.04408 7.59323 3.89662 7.94927C3.74915 8.30532 3.53239 8.62851 3.25892 8.90004L2.16892 9.99004C1.90097 10.2587 1.75049 10.6226 1.75049 11.002C1.75049 11.3815 1.90097 11.7454 2.16892 12.014L3.25892 13.104C3.53215 13.3753 3.74877 13.6982 3.89623 14.0539C4.04369 14.4096 4.11904 14.791 4.11792 15.176V16.454C4.11819 16.8332 4.26893 17.1968 4.53705 17.4649C4.80517 17.733 5.16874 17.8838 5.54792 17.884H6.82592C7.21093 17.8831 7.59229 17.9586 7.94795 18.106C8.3036 18.2535 8.62649 18.47 8.89792 18.743L9.98792 19.833C10.2566 20.101 10.6205 20.2515 10.9999 20.2515C11.3793 20.2515 11.7433 20.101 12.0119 19.833L13.1019 18.743C13.3734 18.47 13.6962 18.2535 14.0519 18.106C14.4076 17.9586 14.7889 17.8831 15.1739 17.884H16.4519C16.8311 17.8838 17.1947 17.733 17.4628 17.4649C17.7309 17.1968 17.8817 16.8332 17.8819 16.454V15.174C17.8808 14.789 17.9562 14.4076 18.1036 14.0519C18.2511 13.6962 18.4677 13.3733 18.7409 13.102L19.8309 12.012C20.0989 11.7434 20.2494 11.3795 20.2494 11C20.2494 10.6206 20.0989 10.2567 19.8309 9.98804L18.7409 8.90004C18.4679 8.62861 18.2514 8.30572 18.1039 7.95007C17.9565 7.59441 17.881 7.21305 17.8819 6.82804V5.54804C17.8817 5.16886 17.7309 4.80529 17.4628 4.53717C17.1947 4.26905 16.8311 4.11831 16.4519 4.11804H15.1739C14.7885 4.11943 14.4067 4.04421 14.0507 3.89674C13.6946 3.74927 13.3715 3.53251 13.0999 3.25904L12.0099 2.16904C11.7413 1.90109 11.3773 1.75061 10.9979 1.75061C10.6185 1.75061 10.2546 1.90109 9.98592 2.16904L8.89992 3.25904C8.62862 3.53227 8.30576 3.7489 7.95007 3.89635C7.59439 4.04381 7.21296 4.11917 6.82792 4.11804H5.54792Z" fill="#9DA1BC"/>
</svg>
