<svg width="50" height="50" viewBox="0 0 50 50" fill="none" xmlns="http://www.w3.org/2000/svg">
<path d="M40.15 40.233H35.1583C35.225 39.9246 35.2166 39.5996 35.1333 39.283L33.4833 32.8913C32.6 29.458 29.5333 27.0663 26.075 26.9413L27.8833 20.458C34.8166 19.0246 36.6416 12.2663 37.1083 9.37464C37.2 8.77464 37.0333 8.15798 36.6333 7.69131C36.2333 7.23298 35.6583 6.96631 35.05 6.96631C34.1166 6.96631 33.3166 7.55798 33.05 8.44964C32.675 9.72464 31.525 12.8413 28.975 14.2246C28.425 14.5246 27.75 14.683 27.025 14.683H20.0583C19.75 14.683 12.7166 14.733 9.19996 22.3163C8.90829 22.9496 8.95829 23.6663 9.32496 24.258C9.69996 24.8413 10.3333 25.183 11.025 25.183C11.725 25.183 12.3583 24.833 12.725 24.2496C13.3 23.333 14.8166 21.3496 17.5666 20.6913L10.5833 43.0163C10.375 43.683 10.4916 44.383 10.9083 44.9496C11.3166 45.508 11.9583 45.833 12.65 45.833C13.4583 45.833 14.1916 45.383 14.5666 44.6746L20.5583 33.308L25.425 33.0496C26.3852 32.9991 27.3349 33.2698 28.1242 33.8191C28.9134 34.3684 29.4972 35.1649 29.7833 36.083L31.0666 40.233H27.9583C27.5 40.233 27.125 40.5996 27.125 41.0663V44.9996C27.125 45.458 27.5 45.833 27.9583 45.833H40.15C40.6083 45.833 40.9833 45.458 40.9833 44.9996V41.0663C40.9833 40.5996 40.6083 40.233 40.15 40.233Z" fill="#000"/>
<path d="M24.7082 13.4832C27.2748 13.4832 29.3665 11.3915 29.3665 8.82484C29.3665 6.25817 27.2748 4.1665 24.7082 4.1665C22.1332 4.1665 20.0415 6.25817 20.0415 8.82484C20.0415 11.3915 22.1332 13.4832 24.7082 13.4832Z" fill="#e7e7e7"/>
<defs>
<linearGradient id="paint0_linear_222_83" x1="8.25081" y1="45.876" x2="35.4207" y2="11.5803" gradientUnits="userSpaceOnUse">
<stop stop-color="#7139DF"/>
<stop offset="1" stop-color="#3A1484"/>
</linearGradient>
</defs>
</svg>
