<svg width="50" height="50" viewBox="0 0 50 50" fill="none" xmlns="http://www.w3.org/2000/svg">
<path d="M25.0638 4.16673C29.7721 4.1876 34.2721 6.0626 37.5638 9.35427C40.8763 12.6668 42.7305 17.1459 42.7098 21.7918V21.8959C42.5846 28.2084 39.043 34.0209 34.6263 38.5626C32.1263 41.1251 29.3555 43.3959 26.3346 45.3126C25.5221 46.0001 24.3346 46.0001 23.5221 45.3126C19.043 42.3959 15.0846 38.7293 11.8763 34.4584C9.0638 30.7501 7.45964 26.2918 7.29297 21.6459C7.33464 11.9584 15.293 4.14594 25.0638 4.16673ZM25.0638 16.5209C21.9596 16.5209 19.4596 19.0001 19.4596 22.0834C19.4596 25.1272 21.918 27.5834 25.0013 27.6251H25.0638C26.543 27.6251 27.9596 27.0626 29.0013 26.0418C30.0846 24.9793 30.6909 23.5647 30.6909 22.0834C30.6909 19.0001 28.168 16.5209 25.0638 16.5209Z" fill="#000000"/>
</svg>
