<svg width="50" height="50" viewBox="0 0 50 50" fill="none" xmlns="http://www.w3.org/2000/svg">
<path d="M36.0582 30.5914L32.453 32.6224C32.0204 32.866 31.5199 32.9613 31.028 32.8937C30.5361 32.8261 30.0799 32.5995 29.7289 32.2483L17.6961 20.2155C17.3452 19.8644 17.1187 19.4082 17.0512 18.9163C16.9836 18.4245 17.0787 17.9241 17.322 17.4914L19.353 13.8862C19.7186 13.2374 19.8618 12.4867 19.7606 11.7488C19.6594 11.0109 19.3195 10.3265 18.7927 9.8L13.3892 4.39655C13.0725 4.0797 12.6965 3.82834 12.2826 3.65685C11.8688 3.48536 11.4252 3.39709 10.9772 3.39709C10.5292 3.39709 10.0856 3.48536 9.67171 3.65685C9.25784 3.82834 8.88181 4.0797 8.56511 4.39655L6.11166 6.84828C4.67696 8.28295 3.76308 10.1561 3.51534 12.1699C3.2676 14.1836 3.70023 16.2224 4.74442 17.9621L5.97545 20.0138C12.2621 30.4913 21.1354 39.1776 31.7444 45.2397L31.9875 45.3793C35.6117 47.45 40.0892 46.8466 42.991 43.9466L45.553 41.3845C45.8699 41.0678 46.1213 40.6918 46.2927 40.2779C46.4642 39.864 46.5525 39.4204 46.5525 38.9724C46.5525 38.5244 46.4642 38.0808 46.2927 37.6669C46.1213 37.2531 45.8699 36.877 45.553 36.5603L40.1461 31.1535C39.6197 30.626 38.9351 30.2855 38.1968 30.184C37.4586 30.0825 36.7074 30.2256 36.0582 30.5914Z" fill="#000000"/>
</svg>
