<svg width="50" height="36" viewBox="0 0 50 36" fill="none" xmlns="http://www.w3.org/2000/svg">
<path d="M49.5596 2.93369L34.3956 18L49.5596 33.0663C49.8337 32.4934 50 31.86 50 31.1836V4.81641C50 4.13994 49.8337 3.50664 49.5596 2.93369ZM45.6055 0.421875H4.39453C3.71807 0.421875 3.08477 0.588184 2.51182 0.862305L21.893 20.1458C23.6066 21.8595 26.3934 21.8595 28.107 20.1458L47.4882 0.862305C46.9152 0.588184 46.2819 0.421875 45.6055 0.421875ZM0.44043 2.93369C0.166309 3.50664 0 4.13994 0 4.81641V31.1836C0 31.8601 0.166309 32.4935 0.44043 33.0663L15.6044 18L0.44043 2.93369Z" fill="#000000"/>
<path d="M32.3241 20.0714L30.1783 22.2172C27.3229 25.0726 22.6768 25.0726 19.8214 22.2172L17.6757 20.0714L2.51172 35.1377C3.08467 35.4118 3.71797 35.5781 4.39443 35.5781H45.6054C46.2818 35.5781 46.9151 35.4118 47.4881 35.1377L32.3241 20.0714Z" fill="#000000"/>
</svg>
