<svg width="24" height="24" viewBox="0 0 24 24" fill="none" xmlns="http://www.w3.org/2000/svg">
<path d="M10.9998 14.7498C10.9013 14.7501 10.8038 14.7308 10.7128 14.693C10.6218 14.6552 10.5392 14.5998 10.4698 14.5298L8.46985 12.5298C8.33737 12.3877 8.26524 12.1996 8.26867 12.0053C8.2721 11.811 8.35081 11.6256 8.48823 11.4882C8.62564 11.3508 8.81102 11.2721 9.00532 11.2687C9.19963 11.2652 9.38767 11.3374 9.52985 11.4698L10.9998 12.9388L14.4698 9.46985C14.612 9.33737 14.8001 9.26524 14.9944 9.26867C15.1887 9.2721 15.3741 9.35081 15.5115 9.48823C15.6489 9.62564 15.7276 9.81102 15.731 10.0053C15.7345 10.1996 15.6623 10.3877 15.5298 10.5298L11.5298 14.5298C11.4605 14.5998 11.3779 14.6552 11.2869 14.693C11.1959 14.7308 11.0984 14.7501 10.9998 14.7498Z" fill="#9EA1BC"/>
<path d="M11.9999 22.7489C11.6151 22.7495 11.234 22.6741 10.8785 22.527C10.5229 22.3799 10.1999 22.1641 9.92792 21.8919L8.83692 20.7999C8.70446 20.6667 8.54691 20.5611 8.37338 20.4892C8.19984 20.4173 8.01377 20.3805 7.82592 20.3809H6.54792C5.77108 20.3801 5.02628 20.0712 4.47698 19.5219C3.92767 18.9726 3.61872 18.2278 3.61792 17.4509V16.1739C3.6185 15.9861 3.58186 15.8001 3.51011 15.6266C3.43837 15.4531 3.33294 15.2955 3.19992 15.1629L2.10792 14.0719C1.55931 13.5219 1.25122 12.7768 1.25122 11.9999C1.25122 11.2231 1.55931 10.4779 2.10792 9.92792L3.19992 8.83692C3.33312 8.70446 3.43873 8.54691 3.51065 8.37338C3.58257 8.19984 3.61937 8.01377 3.61892 7.82592V6.54792C3.61972 5.77108 3.92867 5.02628 4.47798 4.47698C5.02728 3.92767 5.77208 3.61872 6.54892 3.61792H7.82592C8.0137 3.6185 8.19973 3.58186 8.37326 3.51011C8.54679 3.43837 8.70438 3.33294 8.83692 3.19992L9.92792 2.10792C10.4779 1.55931 11.2231 1.25122 11.9999 1.25122C12.7768 1.25122 13.5219 1.55931 14.0719 2.10792L15.1629 3.19992C15.2954 3.33312 15.4529 3.43873 15.6265 3.51065C15.8 3.58257 15.9861 3.61937 16.1739 3.61892H17.4519C18.2288 3.61972 18.9736 3.92867 19.5229 4.47798C20.0722 5.02728 20.3811 5.77208 20.3819 6.54892V7.82592C20.3813 8.0137 20.418 8.19973 20.4897 8.37326C20.5615 8.54679 20.6669 8.70438 20.7999 8.83692L21.8909 9.92792C22.4395 10.4779 22.7476 11.2231 22.7476 11.9999C22.7476 12.7768 22.4395 13.5219 21.8909 14.0719L20.7999 15.1629C20.6667 15.2954 20.5611 15.4529 20.4892 15.6265C20.4173 15.8 20.3805 15.9861 20.3809 16.1739V17.4519C20.3801 18.2288 20.0712 18.9736 19.5219 19.5229C18.9726 20.0722 18.2278 20.3811 17.4509 20.3819H16.1739C15.9861 20.3815 15.8 20.4183 15.6265 20.4902C15.4529 20.5621 15.2954 20.6677 15.1629 20.8009L14.0719 21.8919C13.8 22.1641 13.4769 22.3799 13.1214 22.527C12.7658 22.6741 12.3847 22.7495 11.9999 22.7489ZM6.54792 5.11792C6.16874 5.11819 5.80517 5.26893 5.53705 5.53705C5.26893 5.80517 5.11819 6.16874 5.11792 6.54792V7.82592C5.11931 8.2113 5.04408 8.5931 4.89662 8.94915C4.74915 9.3052 4.53239 9.62838 4.25892 9.89992L3.16892 10.9899C2.90097 11.2586 2.75049 11.6225 2.75049 12.0019C2.75049 12.3813 2.90097 12.7453 3.16892 13.0139L4.25892 14.1039C4.53215 14.3752 4.74877 14.6981 4.89623 15.0538C5.04369 15.4095 5.11904 15.7909 5.11792 16.1759V17.4539C5.11819 17.8331 5.26893 18.1967 5.53705 18.4648C5.80517 18.7329 6.16874 18.8837 6.54792 18.8839H7.82592C8.21093 18.883 8.59229 18.9585 8.94795 19.1059C9.3036 19.2534 9.62649 19.4699 9.89792 19.7429L10.9879 20.8329C11.2566 21.1009 11.6205 21.2514 11.9999 21.2514C12.3793 21.2514 12.7433 21.1009 13.0119 20.8329L14.1019 19.7429C14.3734 19.4699 14.6962 19.2534 15.0519 19.1059C15.4076 18.9585 15.7889 18.883 16.1739 18.8839H17.4519C17.8311 18.8837 18.1947 18.7329 18.4628 18.4648C18.7309 18.1967 18.8817 17.8331 18.8819 17.4539V16.1739C18.8808 15.7889 18.9562 15.4075 19.1036 15.0518C19.2511 14.6961 19.4677 14.3732 19.7409 14.1019L20.8309 13.0119C21.0989 12.7433 21.2494 12.3793 21.2494 11.9999C21.2494 11.6205 21.0989 11.2566 20.8309 10.9879L19.7409 9.89992C19.4679 9.62849 19.2514 9.3056 19.1039 8.94995C18.9565 8.59429 18.881 8.21293 18.8819 7.82792V6.54792C18.8817 6.16874 18.7309 5.80517 18.4628 5.53705C18.1947 5.26893 17.8311 5.11819 17.4519 5.11792H16.1739C15.7885 5.11931 15.4067 5.04408 15.0507 4.89662C14.6946 4.74915 14.3715 4.53239 14.0999 4.25892L13.0099 3.16892C12.7413 2.90097 12.3773 2.75049 11.9979 2.75049C11.6185 2.75049 11.2546 2.90097 10.9859 3.16892L9.89992 4.25892C9.62862 4.53215 9.30576 4.74877 8.95007 4.89623C8.59439 5.04369 8.21296 5.11904 7.82792 5.11792H6.54792Z" fill="#9DA1BC"/>
</svg>
