<svg width="30" height="30" viewBox="0 0 30 30" fill="none" xmlns="http://www.w3.org/2000/svg">
<g clip-path="url(#clip0_119_7535)">
<path d="M22.4999 0H7.50031C3.37577 0 0.000488281 3.37528 0.000488281 7.49982V22.5002C0.000488281 26.6236 3.37577 30 7.50031 30H22.4999C26.6245 30 29.9998 26.6236 29.9998 22.5002V7.49982C29.9998 3.37528 26.6245 0 22.4999 0ZM27.4997 22.5002C27.4997 25.2564 25.2577 27.4999 22.4999 27.4999H7.50031C4.74376 27.4999 2.50055 25.2564 2.50055 22.5002V7.49982C2.50055 4.7429 4.74376 2.50006 7.50031 2.50006H22.4999C25.2577 2.50006 27.4997 4.7429 27.4997 7.49982V22.5002Z" fill="#9EA1BC"/>
<path d="M23.1259 8.74942C24.1614 8.74942 25.0009 7.90997 25.0009 6.87447C25.0009 5.83896 24.1614 4.99951 23.1259 4.99951C22.0904 4.99951 21.251 5.83896 21.251 6.87447C21.251 7.90997 22.0904 8.74942 23.1259 8.74942Z" fill="#9EA1BC"/>
<path d="M14.9998 7.5C10.8569 7.5 7.5 10.8573 7.5 14.9998C7.5 19.1408 10.8569 22.5004 14.9998 22.5004C19.1416 22.5004 22.4996 19.1408 22.4996 14.9998C22.4996 10.8573 19.1416 7.5 14.9998 7.5ZM14.9998 20.0003C12.2387 20.0003 10.0001 17.7616 10.0001 14.9998C10.0001 12.238 12.2387 10.0001 14.9998 10.0001C17.7609 10.0001 19.9996 12.238 19.9996 14.9998C19.9996 17.7616 17.7609 20.0003 14.9998 20.0003Z" fill="#9EA1BC"/>
</g>
<defs>
<clipPath id="clip0_119_7535">
<rect width="30" height="30" fill="white"/>
</clipPath>
</defs>
</svg>
