<svg width="30" height="30" viewBox="0 0 30 30" fill="none" xmlns="http://www.w3.org/2000/svg">
<g clip-path="url(#clip0_119_7540)">
<path d="M25.9091 0H4.09091C3.00593 0 1.96539 0.431005 1.1982 1.1982C0.431005 1.96539 0 3.00593 0 4.09091L0 25.9091C0 26.9941 0.431005 28.0346 1.1982 28.8018C1.96539 29.569 3.00593 30 4.09091 30H25.9091C26.9941 30 28.0346 29.569 28.8018 28.8018C29.569 28.0346 30 26.9941 30 25.9091V4.09091C30 3.00593 29.569 1.96539 28.8018 1.1982C28.0346 0.431005 26.9941 0 25.9091 0ZM10.2273 23.7409C10.2275 23.8241 10.2113 23.9065 10.1796 23.9834C10.1479 24.0604 10.1014 24.1303 10.0427 24.1892C9.98391 24.2481 9.91412 24.2948 9.83729 24.3267C9.76045 24.3586 9.67808 24.375 9.59489 24.375H6.9C6.81667 24.3752 6.73411 24.359 6.65708 24.3272C6.58005 24.2954 6.51005 24.2487 6.45113 24.1898C6.3922 24.1309 6.3455 24.0609 6.31372 23.9838C6.28193 23.9068 6.26568 23.8242 6.26591 23.7409V12.4432C6.26591 12.275 6.33272 12.1137 6.45163 11.9948C6.57055 11.8759 6.73183 11.8091 6.9 11.8091H9.59489C9.76276 11.8095 9.92361 11.8765 10.0422 11.9954C10.1607 12.1143 10.2273 12.2753 10.2273 12.4432V23.7409ZM8.24659 10.7386C7.7409 10.7386 7.24657 10.5887 6.8261 10.3077C6.40563 10.0268 6.07792 9.62747 5.8844 9.16027C5.69088 8.69307 5.64025 8.17898 5.7389 7.68301C5.83756 7.18703 6.08107 6.73145 6.43865 6.37387C6.79623 6.0163 7.25181 5.77278 7.74778 5.67413C8.24375 5.57547 8.75784 5.62611 9.22504 5.81963C9.69224 6.01315 10.0916 6.34086 10.3725 6.76133C10.6535 7.18179 10.8034 7.67613 10.8034 8.18182C10.8034 8.85993 10.534 9.51027 10.0545 9.98976C9.57504 10.4693 8.9247 10.7386 8.24659 10.7386ZM24.3136 23.7852C24.3139 23.8618 24.2989 23.9378 24.2697 24.0086C24.2405 24.0794 24.1976 24.1438 24.1434 24.1979C24.0892 24.2521 24.0249 24.295 23.954 24.3243C23.8832 24.3535 23.8073 24.3684 23.7307 24.3682H20.833C20.7563 24.3684 20.6804 24.3535 20.6096 24.3243C20.5388 24.295 20.4744 24.2521 20.4202 24.1979C20.3661 24.1438 20.3231 24.0794 20.2939 24.0086C20.2647 23.9378 20.2498 23.8618 20.25 23.7852V18.4926C20.25 17.7017 20.4818 15.029 18.1824 15.029C16.4011 15.029 16.0381 16.858 15.9665 17.6795V23.792C15.9665 23.9452 15.9062 24.0922 15.7988 24.2013C15.6913 24.3104 15.5452 24.3728 15.392 24.375H12.5932C12.5167 24.375 12.441 24.3599 12.3704 24.3306C12.2997 24.3013 12.2356 24.2583 12.1816 24.2042C12.1276 24.15 12.0848 24.0857 12.0557 24.015C12.0266 23.9443 12.0117 23.8685 12.0119 23.792V12.3938C12.0117 12.3173 12.0266 12.2415 12.0557 12.1708C12.0848 12.1001 12.1276 12.0358 12.1816 11.9816C12.2356 11.9275 12.2997 11.8845 12.3704 11.8552C12.441 11.8259 12.5167 11.8108 12.5932 11.8108H15.392C15.5467 11.8108 15.6949 11.8722 15.8043 11.9815C15.9136 12.0909 15.975 12.2391 15.975 12.3938V13.379C16.6364 12.3852 17.6165 11.6216 19.708 11.6216C24.3409 11.6216 24.3102 15.9477 24.3102 18.3239L24.3136 23.7852Z" fill="#9EA1BC"/>
</g>
<defs>
<clipPath id="clip0_119_7540">
<rect width="30" height="30" fill="white"/>
</clipPath>
</defs>
</svg>
