<svg width="50" height="50" viewBox="0 0 50 50" fill="none" xmlns="http://www.w3.org/2000/svg">
<path d="M21.4376 21.5396V38.3521C21.456 40.0592 20.8945 41.7221 19.8449 43.0686C18.7954 44.4151 17.3199 45.3655 15.6599 45.7643C13.9999 46.1632 12.2536 45.9868 10.7069 45.2641C9.16016 44.5414 7.90448 43.3152 7.14532 41.786C6.38616 40.2569 6.16845 38.5153 6.52783 36.8463C6.88721 35.1773 7.80238 33.6797 9.12363 32.5985C10.4449 31.5173 12.094 30.9165 13.8011 30.8944C15.5082 30.8724 17.1722 31.4303 18.521 32.4771V22.3729L21.4376 21.5396Z" fill="#000"/>
<path d="M43.521 15.248V34.3314C43.5256 35.8116 43.0908 37.2599 42.2717 38.4928C41.4527 39.7258 40.2862 40.688 38.9199 41.2575C37.5537 41.8271 36.0492 41.9785 34.5969 41.6925C33.1445 41.4065 31.8097 40.696 30.7615 39.651C29.7132 38.6059 28.9986 37.2733 28.7081 35.8219C28.4177 34.3704 28.5645 32.8654 29.1299 31.4975C29.6953 30.1295 30.6539 28.96 31.8843 28.1372C33.1147 27.3144 34.5617 26.8751 36.0419 26.8751C37.7075 26.874 39.3239 27.4397 40.6252 28.4793V16.0814L43.521 15.248Z" fill="#000"/>
<path opacity="0.4" d="M43.5209 10.7896V15.2479L18.5209 22.3729V14.0604C18.4863 12.6306 18.9431 11.2321 19.8151 10.0985C20.6872 8.96482 21.9217 8.16455 23.3125 7.83124L35.3542 4.53958C36.3316 4.1786 37.3803 4.05275 38.4154 4.17218C39.4505 4.29162 40.443 4.65299 41.3125 5.22708C42.0983 5.91038 42.7088 6.77202 43.093 7.73982C43.4773 8.70762 43.624 9.75341 43.5209 10.7896Z" fill="#222"/>
<defs>
<linearGradient id="paint0_linear_222_8" x1="6.00025" y1="46" x2="23.5199" y2="29.4089" gradientUnits="userSpaceOnUse">
<stop stop-color="#7139DF"/>
<stop offset="1" stop-color="#3A1484"/>
</linearGradient>
<linearGradient id="paint1_linear_222_8" x1="28.207" y1="41.8629" x2="47.0938" y2="25.5566" gradientUnits="userSpaceOnUse">
<stop stop-color="#7139DF"/>
<stop offset="1" stop-color="#3A1484"/>
</linearGradient>
</defs>
</svg>
