<svg width="24" height="24" viewBox="0 0 24 24" fill="none" xmlns="http://www.w3.org/2000/svg">
<path d="M11.7487 22.4975C11.3639 22.498 10.9828 22.4226 10.6273 22.2755C10.2717 22.1285 9.94867 21.9127 9.6767 21.6405L8.5857 20.5485C8.45324 20.4153 8.29569 20.3096 8.12215 20.2377C7.94862 20.1658 7.76255 20.129 7.5747 20.1295H6.2967C5.51986 20.1287 4.77506 19.8197 4.22575 19.2704C3.67645 18.7211 3.36749 17.9763 3.3667 17.1995V15.9225C3.36728 15.7347 3.33064 15.5486 3.25889 15.3751C3.18715 15.2016 3.08172 15.044 2.9487 14.9115L1.8567 13.8205C1.30809 13.2704 1 12.5253 1 11.7485C1 10.9716 1.30809 10.2265 1.8567 9.67646L2.9487 8.58546C3.0819 8.453 3.18751 8.29545 3.25943 8.12191C3.33135 7.94838 3.36815 7.7623 3.3677 7.57446V6.29646C3.36849 5.51962 3.67745 4.77482 4.22675 4.22551C4.77606 3.6762 5.52086 3.36725 6.2977 3.36646H7.5747C7.76248 3.36704 7.94851 3.3304 8.12204 3.25865C8.29557 3.1869 8.45316 3.08147 8.5857 2.94846L9.6767 1.85646C10.2267 1.30784 10.9719 0.999756 11.7487 0.999756C12.5255 0.999756 13.2707 1.30784 13.8207 1.85646L14.9117 2.94846C15.0442 3.08165 15.2017 3.18727 15.3752 3.25919C15.5488 3.33111 15.7349 3.36791 15.9227 3.36746H17.2007C17.9775 3.36825 18.7223 3.6772 19.2716 4.22651C19.821 4.77582 20.1299 5.52062 20.1307 6.29746V7.57446C20.1301 7.76223 20.1668 7.94826 20.2385 8.1218C20.3103 8.29533 20.4157 8.45292 20.5487 8.58546L21.6397 9.67646C22.1883 10.2265 22.4964 10.9716 22.4964 11.7485C22.4964 12.5253 22.1883 13.2704 21.6397 13.8205L20.5487 14.9115C20.4155 15.0439 20.3099 15.2015 20.238 15.375C20.166 15.5485 20.1293 15.7346 20.1297 15.9225V17.2005C20.1289 17.9773 19.82 18.7221 19.2706 19.2714C18.7213 19.8207 17.9765 20.1297 17.1997 20.1305H15.9227C15.7349 20.13 15.5488 20.1668 15.3752 20.2387C15.2017 20.3106 15.0442 20.4163 14.9117 20.5495L13.8207 21.6405C13.5487 21.9127 13.2257 22.1285 12.8701 22.2755C12.5146 22.4226 12.1335 22.498 11.7487 22.4975ZM6.2967 4.86646C5.91752 4.86672 5.55395 5.01747 5.28583 5.28559C5.01771 5.55371 4.86697 5.91728 4.8667 6.29646V7.57446C4.86809 7.95983 4.79286 8.34164 4.6454 8.69769C4.49793 9.05373 4.28117 9.37692 4.0077 9.64846L2.9177 10.7385C2.64975 11.0071 2.49927 11.371 2.49927 11.7505C2.49927 12.1299 2.64975 12.4938 2.9177 12.7625L4.0077 13.8525C4.28093 14.1238 4.49755 14.4466 4.64501 14.8023C4.79247 15.158 4.86782 15.5394 4.8667 15.9245V17.2025C4.86697 17.5816 5.01771 17.9452 5.28583 18.2133C5.55395 18.4814 5.91752 18.6322 6.2967 18.6325H7.5747C7.95971 18.6316 8.34107 18.707 8.69673 18.8545C9.05238 19.0019 9.37527 19.2184 9.6467 19.4915L10.7367 20.5815C11.0053 20.8494 11.3693 20.9999 11.7487 20.9999C12.1281 20.9999 12.4921 20.8494 12.7607 20.5815L13.8507 19.4915C14.1221 19.2184 14.445 19.0019 14.8007 18.8545C15.1563 18.707 15.5377 18.6316 15.9227 18.6325H17.2007C17.5799 18.6322 17.9435 18.4814 18.2116 18.2133C18.4797 17.9452 18.6304 17.5816 18.6307 17.2025V15.9225C18.6296 15.5374 18.7049 15.156 18.8524 14.8003C18.9998 14.4446 19.2165 14.1218 19.4897 13.8505L20.5797 12.7605C20.8477 12.4918 20.9981 12.1279 20.9981 11.7485C20.9981 11.369 20.8477 11.0051 20.5797 10.7365L19.4897 9.64846C19.2167 9.37702 19.0001 9.05414 18.8527 8.69848C18.7053 8.34283 18.6298 7.96146 18.6307 7.57646V6.29646C18.6304 5.91728 18.4797 5.55371 18.2116 5.28559C17.9435 5.01747 17.5799 4.86672 17.2007 4.86646H15.9227C15.5373 4.86784 15.1555 4.79262 14.7995 4.64515C14.4434 4.49769 14.1202 4.28092 13.8487 4.00746L12.7587 2.91746C12.4901 2.6495 12.1261 2.49902 11.7467 2.49902C11.3673 2.49902 11.0033 2.6495 10.7347 2.91746L9.6487 4.00746C9.3774 4.28068 9.05454 4.49731 8.69885 4.64477C8.34317 4.79223 7.96174 4.86758 7.5767 4.86646H6.2967Z" fill="#635877"/>
<g clip-path="url(#clip0_119_7387)">
<path d="M14.5 9.5L9.5 14.5" stroke="#635877" stroke-width="1.5" stroke-linecap="round" stroke-linejoin="round"/>
<path d="M9.5 9.5L14.5 14.5" stroke="#635877" stroke-width="1.5" stroke-linecap="round" stroke-linejoin="round"/>
</g>
<defs>
<clipPath id="clip0_119_7387">
<rect width="10" height="10" fill="white" transform="translate(7 7)"/>
</clipPath>
</defs>
</svg>
