<svg width="100" height="100" viewBox="0 0 100 100" fill="none" xmlns="http://www.w3.org/2000/svg">
<g opacity="0.3">
<path d="M52.9297 93.9453H48.0469C45.893 93.9453 44.1406 92.193 44.1406 90.0391C44.1406 89.984 57.8135 9.87246 57.8135 9.87246C57.8607 7.75918 59.5943 6.05469 61.7188 6.05469H91.0156C93.1695 6.05469 94.9219 7.80703 94.9219 9.96094C94.9219 10.1061 56.7459 90.449 56.7459 90.449C56.4717 91.0586 55.0594 93.9453 52.9297 93.9453ZM46.0953 90.1137C46.1346 91.1562 46.9949 91.9922 48.0469 91.9922H52.9297C53.5057 91.9922 54.4666 90.7518 54.9686 89.6389L54.9773 89.6195L92.9586 9.76172C92.8586 8.77793 92.0254 8.00781 91.0156 8.00781H61.7188C60.6418 8.00781 59.7656 8.88398 59.7656 9.96094C59.7656 10.016 59.7611 10.0709 59.7518 10.1252L46.0953 90.1137ZM13.8672 93.9453H8.98438C6.83047 93.9453 5.07812 92.193 5.07812 90.0391C5.07812 89.984 18.751 9.87246 18.751 9.87246C18.7982 7.75918 20.532 6.05469 22.6562 6.05469H51.9531C54.107 6.05469 55.8594 7.80703 55.8594 9.96094C55.8594 10.1061 17.6834 90.449 17.6834 90.449C17.4092 91.0586 15.9969 93.9453 13.8672 93.9453ZM7.03281 90.1137C7.07207 91.1562 7.93242 91.9922 8.98438 91.9922H13.8672C14.4432 91.9922 15.4041 90.7518 15.9061 89.6389C15.909 89.6324 15.912 89.6259 15.915 89.6195L53.8961 9.76172C53.7961 8.77793 52.9629 8.00781 51.9531 8.00781H22.6562C21.5793 8.00781 20.7031 8.88398 20.7031 9.96094C20.7031 10.016 20.6984 10.0709 20.6893 10.1252L7.03281 90.1137Z" fill="white"/>
</g>
</svg>
