<svg width="50" height="50" viewBox="0 0 50 50" fill="none" xmlns="http://www.w3.org/2000/svg">
<path d="M44.6173 37.3828H34.8204C33.9786 37.3855 33.1447 37.2211 32.3669 36.8993C31.5891 36.5774 30.8829 36.1045 30.2891 35.5078C29.4462 34.6641 18.4516 23.6758 18.0313 23.2422L8.16414 13.375C8.01306 13.2356 7.81502 13.1582 7.60945 13.1582C7.40388 13.1582 7.20585 13.2356 7.05477 13.375L3.88289 16.5547C3.40019 17.0391 3.12915 17.6951 3.12915 18.3789C3.12915 19.0628 3.40019 19.7187 3.88289 20.2031L26.586 42.8984C26.8622 43.1792 27.16 43.4378 27.4766 43.6719C28.8469 44.6917 30.5108 45.2399 32.2188 45.2344H42.5001C43.6601 45.2336 44.7725 44.7724 45.5928 43.9521C46.413 43.1318 46.8743 42.0195 46.8751 40.8594V39.6719C46.8759 39.0699 46.6393 38.4919 46.2166 38.0633C45.7939 37.6348 45.2192 37.3902 44.6173 37.3828Z" fill="#000"/>
<path d="M19.1328 22.1406L19.6328 22.6406C19.8047 19.95 20.2422 13.539 20.4062 10.9375L20.5703 8.47653C20.6098 7.77434 20.436 7.07663 20.0718 6.47498C19.7076 5.87332 19.17 5.39584 18.5295 5.1052C17.8891 4.81455 17.1758 4.72433 16.4831 4.84636C15.7905 4.9684 15.151 5.297 14.6484 5.78903L8.61719 11.8203C8.8563 11.9246 9.07363 12.073 9.25781 12.2578L19.1328 22.1406ZM34.8203 35.8203H43.1719C40.0949 32.3382 37.6208 28.367 35.8516 24.0703C35.1758 24.7547 33.7094 26.2062 33.0234 26.8984C32.8763 27.0445 32.6772 27.1261 32.4699 27.1254C32.2626 27.1247 32.064 27.0416 31.918 26.8945C31.7719 26.7474 31.6902 26.5483 31.691 26.341C31.6917 26.1336 31.7748 25.9351 31.9219 25.789L35.25 22.4609C34.5781 20.6093 34.0078 18.9765 33.5234 17.5703L28.9844 22.1093C28.9131 22.1835 28.8276 22.2425 28.7329 22.2828C28.6383 22.3231 28.5365 22.3438 28.4336 22.3438C28.3307 22.3438 28.2289 22.3231 28.1343 22.2828C28.0396 22.2425 27.9541 22.1835 27.8828 22.1093C27.8104 22.0371 27.7529 21.9512 27.7137 21.8567C27.6745 21.7622 27.6543 21.6609 27.6543 21.5586C27.6543 21.4562 27.6745 21.3549 27.7137 21.2604C27.7529 21.1659 27.8104 21.0801 27.8828 21.0078L32.9766 15.914C32.1445 13.3539 31.6781 10.6851 28.5781 10.6406C27.8647 10.6415 27.1668 10.8494 26.5691 11.2391C25.9714 11.6288 25.4997 12.1835 25.2109 12.8359C24.7531 13.9531 23.5312 14.1859 22.4297 14.0859C22.0437 14.1328 21.6812 13.7617 21.75 14.3437L21.7422 14.5078C21.6539 15.6781 21.1781 23.1132 21.1016 24.1172L31.3906 34.4062C31.8404 34.857 32.3751 35.2141 32.9638 35.4568C33.5525 35.6995 34.1835 35.8231 34.8203 35.8203ZM25.4844 44L25.1562 43.6718H3.90625C3.69905 43.6718 3.50034 43.7542 3.35382 43.9007C3.20731 44.0472 3.125 44.2459 3.125 44.4531C3.125 44.6603 3.20731 44.859 3.35382 45.0055C3.50034 45.152 3.69905 45.2343 3.90625 45.2343H26.9922C26.4419 44.8849 25.9356 44.4705 25.4844 44ZM15.625 38.9468C15.8322 38.9468 16.0309 38.8645 16.1774 38.718C16.3239 38.5715 16.4062 38.3728 16.4062 38.1656C16.4062 37.9584 16.3239 37.7597 16.1774 37.6132C16.0309 37.4667 15.8322 37.3843 15.625 37.3843H3.90625C3.69905 37.3843 3.50034 37.4667 3.35382 37.6132C3.20731 37.7597 3.125 37.9584 3.125 38.1656C3.125 38.3728 3.20731 38.5715 3.35382 38.718C3.50034 38.8645 3.69905 38.9468 3.90625 38.9468H15.625Z" fill="#000"/>
<path d="M34.7188 35.1797H43.0703C39.9934 31.6976 37.5193 27.7264 35.75 23.4297C35.0742 24.1141 33.6078 25.5656 32.9219 26.2578C32.7748 26.4039 32.5756 26.4855 32.3683 26.4848C32.161 26.4841 31.9625 26.401 31.8164 26.2539C31.6703 26.1068 31.5887 25.9077 31.5894 25.7004C31.5901 25.493 31.6732 25.2945 31.8203 25.1484L35.1484 21.8203C34.4766 19.9688 33.9062 18.3359 33.4219 16.9297L28.8828 21.4688C28.8115 21.5429 28.726 21.6019 28.6313 21.6422C28.5367 21.6825 28.4349 21.7033 28.332 21.7033C28.2292 21.7033 28.1274 21.6825 28.0327 21.6422C27.9381 21.6019 27.8525 21.5429 27.7812 21.4688C27.7088 21.3965 27.6514 21.3106 27.6122 21.2161C27.573 21.1216 27.5528 21.0203 27.5528 20.918C27.5528 20.8156 27.573 20.7143 27.6122 20.6198C27.6514 20.5253 27.7088 20.4395 27.7812 20.3672L32.875 15.2734C32.043 12.7133 31.5766 10.0445 28.4766 10C27.7631 10.001 27.0652 10.2089 26.4675 10.5985C25.8699 10.9882 25.3981 11.5429 25.1094 12.1953C24.6516 13.3125 23.4297 13.5453 22.3281 13.4453C21.9422 13.4922 21.5797 13.1211 21.6484 13.7031L21.6406 13.8672C21.5523 15.0375 21.0766 22.4727 21 23.4766L31.2891 33.7656C31.7388 34.2164 32.2735 34.5735 32.8622 34.8162C33.451 35.059 34.082 35.1825 34.7188 35.1797Z" fill="#222"/>
<defs>
<linearGradient id="paint0_linear_222_57" x1="2.0887" y1="45.2699" x2="20.01" y2="7.7656" gradientUnits="userSpaceOnUse">
<stop stop-color="#7139DF"/>
<stop offset="1" stop-color="#3A1484"/>
</linearGradient>
<linearGradient id="paint1_linear_222_57" x1="2.17253" y1="45.2791" x2="28.8445" y2="4.7507" gradientUnits="userSpaceOnUse">
<stop stop-color="#7139DF"/>
<stop offset="1" stop-color="#3A1484"/>
</linearGradient>
</defs>
</svg>
