<svg width="50" height="50" viewBox="0 0 50 50" fill="none" xmlns="http://www.w3.org/2000/svg">
<g clip-path="url(#clip0_222_70)">
<path d="M16.4307 27.4222L27.4171 16.436L33.559 22.5779L22.5727 33.5641L16.4307 27.4222ZM12.0575 27.2007C11.363 26.5062 10.4395 26.1237 9.45732 26.1237C8.47521 26.1237 7.55167 26.5062 6.85713 27.2007L1.07719 32.9807C-0.356459 34.4144 -0.356459 36.7473 1.07719 38.181L11.8192 48.9231C12.5138 49.6175 13.4372 50 14.4193 50C15.4015 50 16.325 49.6175 17.0195 48.923L22.7995 43.1429C24.2332 41.7092 24.2332 39.3764 22.7994 37.9426L12.0575 27.2007ZM38.1811 1.07693C37.4866 0.382482 36.5631 0 35.581 0C34.5988 0 33.6754 0.382482 32.9808 1.07702L27.2008 6.85706C25.7671 8.29081 25.7671 10.6237 27.2008 12.0574L37.9428 22.7994C38.6374 23.4939 39.5608 23.8764 40.543 23.8764C41.5251 23.8764 42.4487 23.4939 43.1432 22.7994L48.9231 17.0194C50.3568 15.5857 50.3568 13.2528 48.9231 11.819L38.1811 1.07693Z" fill="#000"/>
<path d="M38.2504 1.01296C37.5558 0.318518 36.6324 -0.0639648 35.6503 -0.0639648C34.6681 -0.0639648 33.7446 0.318518 33.0501 1.01306L27.27 6.7931C25.8364 8.22684 25.5663 10.5664 27 12L37.5 22.5C38.1945 23.1945 39.5178 24 40.5 24C41.4821 24 42.5179 23.43 43.2124 22.7354L48.9924 16.9555C50.426 15.5217 50.426 13.1888 48.9924 11.7551L38.2504 1.01296Z" fill="#222"/>
</g>
<defs>
<linearGradient id="paint0_linear_222_70" x1="-1.18715" y1="50.0553" x2="31.6614" y2="-0.346083" gradientUnits="userSpaceOnUse">
<stop stop-color="#7139DF"/>
<stop offset="1" stop-color="#3A1484"/>
</linearGradient>
<clipPath id="clip0_222_70">
<rect width="50" height="50" fill="white"/>
</clipPath>
</defs>
</svg>
